<?xml version="1.0" encoding="utf-8"?>
<svg viewBox="0 0 6 21" fill="none" xmlns="http://www.w3.org/2000/svg">
  <path d="M 3.497 19.5 C 3.497 20.328 2.825 21 1.997 21 C 1.168 21 0.497 20.328 0.497 19.5 C 0.497 18.672 1.168 18 1.997 18 C 2.825 18 3.497 18.672 3.497 19.5 Z" style="fill: rgb(129, 140, 248);"/>
  <path d="M 3.497 13.5 C 3.497 14.328 2.825 15 1.997 15 C 1.168 15 0.497 14.328 0.497 13.5 C 0.497 12.672 1.168 12 1.997 12 C 2.825 12 3.497 12.672 3.497 13.5 Z" style="fill: rgb(129, 140, 248);"/>
  <path d="M 3.497 7.5 C 3.497 8.328 2.825 9 1.997 9 C 1.168 9 0.497 8.328 0.497 7.5 C 0.497 6.672 1.168 6 1.997 6 C 2.825 6 3.497 6.672 3.497 7.5 Z" style="fill: rgb(129, 140, 248);"/>
  <path d="M 3.497 1.5 C 3.497 2.328 2.825 3 1.997 3 C 1.168 3 0.497 2.328 0.497 1.5 C 0.497 0.672 1.168 0 1.997 0 C 2.825 0 3.497 0.672 3.497 1.5 Z" style="fill: rgb(129, 140, 248);"/>
</svg>