<?xml version="1.0" encoding="utf-8"?>
<svg viewBox="1 2 42.666 40.846" xmlns="http://www.w3.org/2000/svg">
  <path fill-rule="evenodd" clip-rule="evenodd" d="M 24.979 3.12 C 23.485 1.627 21.064 1.627 19.571 3.121 L 7.109 15.587 L 7.099 15.584 L 7.059 15.588 C 7.076 15.596 7.092 15.604 7.107 15.612 C 4.921 15.841 3.994 16.498 3.983 17.341 C 3.987 17.655 4.116 17.994 4.352 18.346 L 4.341 18.357 C 6.328 21.354 16.173 25.308 23.138 22.629 C 17.918 25.239 5.625 25.757 2.014 20.689 C 1.23 21.537 0.902 22.652 1.025 23.724 C 1.979 28.981 12.643 30.415 23.308 22.798 L 25.615 25.106 C 22.744 28.056 18.502 45.192 24.805 42.576 C 24.954 42.474 25.081 42.384 25.254 42.253 L 25.535 41.988 C 25.518 41.992 25.502 41.996 25.486 41.999 L 42.366 26.064 C 43.934 24.584 43.969 22.102 42.445 20.578 L 24.979 3.12 Z M 23.141 8.313 L 23.718 6.005 L 24.295 8.313 L 26.025 8.89 L 24.295 9.467 L 23.718 11.775 L 23.141 9.467 L 21.41 8.89 L 23.141 8.313 Z M 16 15.846 L 16.384 14.308 L 16.769 15.846 L 17.923 16.231 L 16.769 16.616 L 16.384 18.154 L 16 16.616 L 14.846 16.231 L 16 15.846 Z M 29.395 28.823 L 29.011 30.362 L 27.857 30.746 L 29.011 31.131 L 29.395 32.669 L 29.78 31.131 L 30.934 30.746 L 29.78 30.362 L 29.395 28.823 Z" class="ccustom" fill="#4845D2"/>
  <path fill-rule="evenodd" clip-rule="evenodd" d="M 43.666 4.647 C 40.057 4.647 36.635 6.25 34.325 9.022 L 26.106 18.885 L 30.852 11.766 L 22.974 15.142 C 21.973 15.571 21.722 16.875 22.492 17.644 L 25.027 20.179 L 23.733 21.733 L 26.58 24.58 L 28.134 23.286 L 30.669 25.821 C 31.438 26.591 32.742 26.34 33.171 25.339 L 36.547 17.461 L 29.428 22.207 L 39.291 13.988 C 42.063 11.678 43.666 8.256 43.666 4.647 Z M 35.835 12.478 C 36.622 13.264 37.896 13.264 38.683 12.478 C 39.469 11.692 39.469 10.417 38.683 9.63 C 37.896 8.844 36.622 8.844 35.835 9.63 C 35.049 10.417 35.049 11.692 35.835 12.478 Z" class="ccompli2" fill="#A3A2FF"/>
  <path opacity="0.6" d="M 1.922 20.557 C 3.808 27.016 15.271 26.68 23.136 22.63 C 17.869 25.262 5.411 25.765 1.922 20.557 Z" fill="#424242"/>
  <path opacity="0.6" d="M 24.805 42.576 C 19.494 44.781 21.67 32.96 24.204 27.42 C 22.357 32.344 20.78 43.199 25.535 41.988 L 25.254 42.253 C 25.081 42.384 24.954 42.474 24.805 42.576 Z" fill="#424242"/>
</svg>